<svg xmlns="http://www.w3.org/2000/svg" viewBox="0 0 418.862 420.875">
  <defs>
    <style>
      .cls-1 {
        fill: #455a64;
        fill-rule: evenodd;
      }
    </style>
  </defs>
  <title>whatsapp</title>
  <g id="Шар_2" data-name="Шар 2">
    <g id="WhatsApp_Logo" data-name="WhatsApp Logo">
      <g id="WA_Logo" data-name="WA Logo">
        <path class="cls-1" d="M357.835,61.163A207.2,207.2,0,0,0,210.305,0C95.352,0,1.794,93.552,1.749,208.54A208.175,208.175,0,0,0,29.587,312.8L0,420.875l110.558-29a208.364,208.364,0,0,0,99.664,25.384h.086c114.941,0,208.507-93.561,208.554-208.552A207.291,207.291,0,0,0,357.835,61.163ZM210.307,382.037h-.07a173.088,173.088,0,0,1-88.227-24.162l-6.329-3.757-65.607,17.21,17.511-63.966L63.464,300.8a172.919,172.919,0,0,1-26.5-92.25C37,112.98,114.761,35.224,210.376,35.224A173.37,173.37,0,0,1,383.649,208.693C383.61,304.274,305.849,382.037,210.307,382.037Zm95.082-129.825c-5.211-2.608-30.831-15.213-35.608-16.954s-8.25-2.607-11.724,2.608-13.46,16.955-16.5,20.433-6.079,3.914-11.289,1.3-22-8.11-41.907-25.865c-15.491-13.818-25.95-30.882-28.989-36.1s-.324-8.037,2.284-10.635c2.345-2.336,5.212-6.087,7.817-9.13s3.474-5.217,5.211-8.693.869-6.521-.434-9.129-11.725-28.259-16.067-38.694c-4.23-10.16-8.526-8.784-11.725-8.945-3.036-.151-6.514-.184-9.987-.184a19.146,19.146,0,0,0-13.9,6.521c-4.777,5.217-18.239,17.825-18.239,43.473s18.673,50.429,21.278,53.907,36.746,56.113,89.021,78.685a299.074,299.074,0,0,0,29.707,10.977c12.483,3.967,23.844,3.407,32.823,2.065,10.012-1.5,30.831-12.605,35.174-24.777s4.341-22.608,3.038-24.781S310.6,254.821,305.389,252.212Z"/>
      </g>
    </g>
  </g>
</svg>
